<?xml version="1.0" encoding="UTF-8" standalone="no"?>
<svg
   xmlns:dc="http://purl.org/dc/elements/1.1/"
   xmlns:cc="http://creativecommons.org/ns#"
   xmlns:rdf="http://www.w3.org/1999/02/22-rdf-syntax-ns#"
   xmlns:svg="http://www.w3.org/2000/svg"
   xmlns="http://www.w3.org/2000/svg"
   xmlns:sodipodi="http://sodipodi.sourceforge.net/DTD/sodipodi-0.dtd"
   xmlns:inkscape="http://www.inkscape.org/namespaces/inkscape"
   height="45"
   id="svg2"
   version="1.1"
   width="45"
   xml:space="preserve"
   sodipodi:docname="mail.svg"
   inkscape:version="0.92.1 r15371"><metadata
     id="metadata24"><rdf:RDF><cc:Work
         rdf:about=""><dc:format>image/svg+xml</dc:format><dc:type
           rdf:resource="http://purl.org/dc/dcmitype/StillImage" /></cc:Work></rdf:RDF></metadata><sodipodi:namedview
     pagecolor="#ffffff"
     bordercolor="#666666"
     borderopacity="1"
     objecttolerance="10"
     gridtolerance="10"
     guidetolerance="10"
     inkscape:pageopacity="0"
     inkscape:pageshadow="2"
     inkscape:window-width="1920"
     inkscape:window-height="1017"
     id="namedview22"
     showgrid="false"
     inkscape:zoom="5.2444444"
     inkscape:cx="-9.8199154"
     inkscape:cy="22.5"
     inkscape:window-x="-8"
     inkscape:window-y="-8"
     inkscape:window-maximized="1"
     inkscape:current-layer="svg2" /><defs
     id="defs6"><clipPath
       id="clipPath16"><path
         d="M 0,0 0,36 36,36 36,0 0,0"
         id="path18" /></clipPath></defs><g
     id="g10"
     transform="matrix(1.25,0,0,-1.25,0,45)"><g
       id="g12"><g
         clip-path="url(#clipPath16)"
         id="g14"><g
           id="g20"><g
             id="g22"><g
               id="g24"><path
                 d="m -42.796,29.036 0,-20.985 c 0,-0.846 0.687,-1.533 1.533,-1.533 l 32.935,0 c 0.846,0 1.533,0.687 1.533,1.533 l 0,20.985 c 0,0.846 -0.687,1.533 -1.533,1.533 l -32.935,0 c -0.846,0 -1.533,-0.687 -1.533,-1.533 z"
                 id="path26"
                 style="fill:#2b2b2b;fill-opacity:1;fill-rule:evenodd;stroke:none" /></g></g><g
             id="g28"><g
               id="g30"><path
                 d="m -24.795,15.195 -18,12.227 0,1.613 c 0,0.846 0.687,1.533 1.533,1.533 l 32.935,0 c 0.846,0 1.533,-0.687 1.533,-1.533 l 0,-1.394 -18.001,-12.446 z"
                 id="path32"
                 style="fill:#525252;fill-opacity:1;fill-rule:evenodd;stroke:none" /></g></g><g
             id="g34"><g
               id="g36"><path
                 d="m 0.719,28.073 0,-20.145 c 0,-0.812 0.66,-1.471 1.472,-1.471 l 31.615,0 c 0.812,0 1.471,0.659 1.471,1.471 l 0,20.145 c 0,0.812 -0.659,1.471 -1.471,1.471 l -31.615,0 c -0.812,0 -1.472,-0.659 -1.472,-1.471 z"
                 id="path38"
                 style="fill:none;stroke:#000000;stroke-width:1.44000006;stroke-linecap:round;stroke-linejoin:miter;stroke-miterlimit:10;stroke-opacity:1;stroke-dasharray:none" /></g></g><g
             id="g40"><g
               id="g42"><path
                 d="m 17.999,14.786 -17.278,11.737 0,1.549 c 0,0.812 0.66,1.471 1.472,1.471 l 31.614,0 c 0.813,0 1.473,-0.659 1.473,-1.471 l 0,-1.339 -17.281,-11.947 z"
                 id="path44"
                 style="fill:none;stroke:#000000;stroke-width:1.44000006;stroke-linecap:round;stroke-linejoin:miter;stroke-miterlimit:10;stroke-opacity:1;stroke-dasharray:none" /></g></g></g></g></g></g><path
     style="opacity:0.20499998;fill:#0000ff;fill-opacity:1;stroke:none;stroke-width:0.0190678;stroke-linejoin:bevel;stroke-miterlimit:4;stroke-dasharray:none;stroke-opacity:0.57746474;paint-order:stroke markers fill"
     d="M 1.6588983,37.496054 C 1.1369882,37.280178 0.48659287,36.548613 0.24151508,35.901782 0.10468686,35.540653 0.03823255,31.110609 0.03843191,22.363646 0.03876821,7.6081621 -0.04315433,8.405071 1.5562925,7.5985169 L 2.4070767,7.1694915 H 22.243239 c 10.909889,0 20.137206,0.05572 20.505148,0.1238222 0.405038,0.074968 0.951105,0.4046599 1.384028,0.8356182 l 0.715043,0.7117959 V 22.315426 c 0,14.870896 0.05175,14.225062 -1.200995,14.988903 -0.595766,0.36326 -1.10337,0.371938 -21.108327,0.360839 C 11.264301,37.658914 1.8686441,37.58281 1.6588983,37.496054 Z M 42.940678,35.771186 c 0.372539,-0.372539 0.381356,-0.635592 0.381356,-11.377118 0,-6.04767 -0.03859,-11.034352 -0.08575,-11.081517 -0.04716,-0.04716 -4.634191,3.057452 -10.193394,6.899148 -5.559203,3.841696 -10.232571,7.032844 -10.385264,7.091437 -0.167396,0.06424 -4.353291,-2.664174 -10.542835,-6.871931 L 1.8495763,13.452741 1.8003446,24.452215 c -0.044902,10.032021 -0.021338,11.030296 0.2679002,11.349901 0.3039784,0.335893 1.1502608,0.350426 20.4041052,0.350426 19.832735,0 20.091798,-0.0048 20.468328,-0.381356 z M 33.073093,18.239279 43.322034,11.149693 v -0.71425 c 0,-0.392837 -0.121782,-0.8808083 -0.270629,-1.0843801 C 42.786868,8.9892612 42.327059,8.9798204 22.618127,8.9315256 -0.26569452,8.8754512 1.7538392,8.7247646 1.7547258,10.488239 l 4.883e-4,0.971507 10.3353689,7.012755 c 5.684453,3.857015 10.424965,6.977567 10.534469,6.934559 0.109505,-0.04301 4.811124,-3.268509 10.448041,-7.167781 z"
     id="path27"
     inkscape:connector-curvature="0" /><path
     style="opacity:0.20499998;fill:#0000ff;fill-opacity:1;stroke:none;stroke-width:0.0190678;stroke-linejoin:bevel;stroke-miterlimit:4;stroke-dasharray:none;stroke-opacity:0.57746474;paint-order:stroke markers fill"
     d="M 2.9245035,37.50569 C 1.4060045,37.397376 1.3044042,37.36133 0.79464613,36.75007 0.03642382,35.840872 -0.00278174,34.992871 0.07058774,21.088983 0.14193944,7.5674755 0.0633698,8.236981 1.6618084,7.5299156 2.4716454,7.1716862 3.077506,7.1625451 22.670516,7.2129396 44.941735,7.2702226 43.471058,7.1872138 44.458637,8.4427171 l 0.407564,0.5181331 -0.05812,13.4528378 c -0.04294,9.938412 -0.117883,13.587218 -0.286877,13.967229 -0.125815,0.282917 -0.464724,0.66904 -0.753132,0.858051 -0.49603,0.325081 -1.571124,0.344654 -19.88669,0.362061 -10.64927,0.01013 -20.0798642,-0.03278 -20.9568745,-0.09534 z M 42.940678,35.771186 c 0.372539,-0.372539 0.381356,-0.635592 0.381356,-11.377118 0,-6.04767 -0.03695,-11.032709 -0.0821,-11.077866 -0.04516,-0.04516 -4.185252,2.743194 -9.200212,6.196333 -5.01496,3.45314 -9.64273,6.63155 -10.283932,7.063134 l -1.165822,0.784699 -3.029093,-1.961229 C 17.894871,24.320462 13.228284,21.190991 9.190678,18.444759 l -7.3411017,-4.99315 -0.049232,11.00004 c -0.044902,10.032549 -0.021339,11.030861 0.2679002,11.350467 0.3039784,0.335893 1.1502608,0.350426 20.4041055,0.350426 19.832735,0 20.091798,-0.0048 20.468328,-0.381356 z M 23.457169,24.867881 c 0.490824,-0.333682 5.16121,-3.555613 10.378636,-7.159845 l 9.486229,-6.553151 v -0.716846 c 0,-0.394265 -0.121782,-0.8834043 -0.270629,-1.0869761 C 42.786868,8.9892612 42.327059,8.9798204 22.618127,8.9315256 -0.28359481,8.8754074 1.7542373,8.7216234 1.7542373,10.506009 v 0.989276 l 2.717161,1.821947 c 1.4944386,1.002072 6.1474567,4.147412 10.3400397,6.989646 4.192583,2.842234 7.652228,5.167698 7.688102,5.167698 0.03587,0 0.466807,-0.273012 0.957629,-0.606695 z"
     id="path29"
     inkscape:connector-curvature="0" /><path
     style="opacity:0.20499998;fill:#0000ff;fill-opacity:1;stroke:none;stroke-width:0.0190678;stroke-linejoin:bevel;stroke-miterlimit:4;stroke-dasharray:none;stroke-opacity:0.57746474;paint-order:stroke markers fill"
     d="M 7.7605932,37.500348 C 4.1949153,37.433723 1.2573085,37.360626 1.2325783,37.337911 1.2078481,37.315196 0.95043283,36.938185 0.66054442,36.500108 l -0.52706984,-0.7965 0.00146,-12.979982 C 0.13658431,8.047603 0.10624428,8.4002905 1.4278611,7.6940019 l 0.8030711,-0.4291714 20.1165258,0.00818 c 15.896721,0.00646 20.26696,0.059709 20.833673,0.2538296 0.399211,0.1367449 0.938004,0.5352079 1.21532,0.8987874 l 0.498171,0.6531377 -0.09452,13.2985408 c -0.07035,9.897512 -0.154815,13.458509 -0.330271,13.924038 -0.478928,1.270714 0.149207,1.220152 -15.810848,1.272687 -7.928433,0.0261 -17.332707,-0.0071 -20.8983848,-0.07368 z M 42.940678,35.771186 c 0.372539,-0.372539 0.381356,-0.635592 0.381356,-11.377118 0,-6.04767 -0.03769,-11.033449 -0.08375,-11.079509 -0.04606,-0.04606 -4.609234,3.026408 -10.140386,6.827709 -5.531152,3.8013 -10.194469,6.947497 -10.362928,6.99155 -0.37955,0.09925 -3.671801,-2.020626 -13.3204903,-8.577068 -4.1237969,-2.802187 -7.5343601,-5.094886 -7.5790294,-5.094886 -0.044669,0 -0.081217,4.948488 -0.081217,10.996639 0,9.964905 0.029608,11.029355 0.3155697,11.345339 0.3019144,0.333612 1.1847692,0.3487 20.402543,0.3487 19.832735,0 20.091798,-0.0048 20.468328,-0.381356 z M 27.213944,22.311443 c 2.409768,-1.659782 6.99845,-4.827918 10.197073,-7.040302 l 5.815678,-4.022516 0.05614,-0.75249 C 43.315841,10.05363 43.223993,9.5865458 43.059871,9.3622881 42.784225,8.985644 42.531658,8.9803218 22.618127,8.9315256 -0.28472414,8.8754046 1.7542373,8.721426 1.7542373,10.507128 v 0.990396 l 10.3350907,6.99416 c 5.684299,3.846788 10.42692,6.958922 10.539157,6.915853 0.112236,-0.04307 2.175694,-1.436311 4.585459,-3.096094 z"
     id="path31"
     inkscape:connector-curvature="0" /><path
     style="opacity:0.20499998;fill:#0000ff;fill-opacity:1;stroke:none;stroke-width:0.0190678;stroke-linejoin:bevel;stroke-miterlimit:4;stroke-dasharray:none;stroke-opacity:0.57746474;paint-order:stroke markers fill"
     d="M 1.8019537,37.352784 C 1.4840655,37.303374 1.0711699,37.000516 0.7532248,36.583543 L 0.22881337,35.895798 V 22.533704 c 0,-14.915229 -0.0652427,-14.1875231 1.33474573,-14.8875174 0.7495023,-0.3747511 1.1012101,-0.3806385 20.3072039,-0.3399331 10.74947,0.022783 19.999685,0.0939 20.556034,0.1580388 0.75633,0.087194 1.18133,0.2656915 1.684499,0.7074781 l 0.672954,0.590862 -0.06374,13.6472856 c -0.06764,14.483609 -0.04963,14.21108 -0.973825,14.739314 -0.335916,0.191997 -4.708093,0.247141 -20.922537,0.263883 -11.273834,0.01164 -20.7338238,-0.01551 -21.0221983,-0.06033 z M 42.958794,35.75128 c 0.345507,-0.381675 0.365982,-0.872727 0.419408,-10.058263 0.03089,-5.31135 -0.01201,-10.284868 -0.09534,-11.052261 l -0.151507,-1.395262 -8.961865,6.142799 c -4.929025,3.378539 -9.537502,6.526437 -10.241062,6.995327 l -1.279195,0.852531 -0.913601,-0.532564 C 20.641464,26.065764 12.163266,20.421679 6.3545095,16.464103 4.0605069,14.901171 2.0655387,13.577106 1.9212468,13.521737 c -0.2208085,-0.08473 -0.2623487,1.638585 -0.2623487,10.88371 0,10.730147 0.00883,10.99321 0.3813559,11.36574 0.3765292,0.37653 0.6355932,0.381356 20.468328,0.381356 H 42.595554 Z M 25.73885,23.347986 c 1.700411,-1.169624 6.383214,-4.400641 10.406225,-7.180037 l 7.314567,-5.053447 -0.102083,-0.76108 C 43.301414,9.9348279 43.096458,9.4333233 42.902104,9.2389675 42.562689,8.8995535 41.76176,8.8852196 22.628177,8.8761323 6.3440579,8.8683982 2.6206078,8.9132425 2.230932,9.1217914 1.8087519,9.347736 1.7542371,9.5001939 1.7542371,10.454934 v 1.078022 l 10.2966099,6.962741 c 5.663136,3.829507 10.364049,6.966371 10.446478,6.97081 0.08243,0.0044 1.541112,-0.948896 3.241525,-2.118521 z"
     id="path28"
     inkscape:connector-curvature="0" /></svg>