<?xml version="1.0" encoding="UTF-8" standalone="no"?>
<svg
   xmlns:dc="http://purl.org/dc/elements/1.1/"
   xmlns:cc="http://creativecommons.org/ns#"
   xmlns:rdf="http://www.w3.org/1999/02/22-rdf-syntax-ns#"
   xmlns:svg="http://www.w3.org/2000/svg"
   xmlns="http://www.w3.org/2000/svg"
   xmlns:sodipodi="http://sodipodi.sourceforge.net/DTD/sodipodi-0.dtd"
   xmlns:inkscape="http://www.inkscape.org/namespaces/inkscape"
   data-name="Layer 1"
   id="Layer_1"
   viewBox="0 0 48 48"
   version="1.1"
   sodipodi:docname="smile.svg">
  <metadata
     id="metadata19">
    <rdf:RDF>
      <cc:Work
         rdf:about="">
        <dc:format>image/svg+xml</dc:format>
        <dc:type
           rdf:resource="http://purl.org/dc/dcmitype/StillImage" />
      </cc:Work>
    </rdf:RDF>
  </metadata>
  <sodipodi:namedview
     pagecolor="#ffffff"
     bordercolor="#666666"
     borderopacity="1"
     objecttolerance="10"
     gridtolerance="10"
     guidetolerance="10"
     inkscape:pageopacity="0"
     inkscape:pageshadow="2"
     inkscape:window-width="640"
     inkscape:window-height="480"
     id="namedview17"
     showgrid="false" />
  <defs
     id="defs4">
    <style
       id="style2">.cls-1,.cls-2{fill:none;stroke:#231f20;stroke-miterlimit:10;stroke-width:2px;}.cls-2{stroke-linecap:round;}.cls-3{fill:#231f20;}</style>
  </defs>
  <title
     id="title6" />
  <circle
     class="cls-1"
     cx="24"
     cy="24"
     r="23"
     id="circle8" />
  <path
     class="cls-2"
     d="M14,33s8.83,9.33,20,0"
     id="path10" />
  <ellipse
     class="cls-3"
     cx="17"
     cy="19"
     rx="3"
     ry="4"
     id="ellipse12" />
  <ellipse
     class="cls-3"
     cx="31"
     cy="19"
     rx="3"
     ry="4"
     id="ellipse14" />
  <path
     style="opacity:0.20499998;fill:#0000ff;fill-opacity:1;stroke:none;stroke-width:0.02033898;stroke-linejoin:bevel;stroke-miterlimit:4;stroke-dasharray:none;stroke-opacity:0.57746474;paint-order:stroke markers fill"
     d="m 15.760747,22.502134 c -1.35644,-0.827064 -2.009917,-3.198733 -1.39307,-5.055883 1.246236,-3.752065 5.435855,-2.614149 5.483514,1.489342 0.03366,2.8984 -2.11444,4.771373 -4.090444,3.566541 z"
     id="path21"
     inkscape:connector-curvature="0" />
  <path
     style="opacity:0.20499998;fill:#0000ff;fill-opacity:1;stroke:none;stroke-width:0.02033898;stroke-linejoin:bevel;stroke-miterlimit:4;stroke-dasharray:none;stroke-opacity:0.57746474;paint-order:stroke markers fill"
     d="m 15.905085,22.532737 c -2.199709,-1.207911 -2.291845,-5.650892 -0.144338,-6.960294 1.973066,-1.203042 4.008745,0.547618 4.008745,3.447475 0,2.7891 -1.951631,4.563169 -3.864407,3.512819 z"
     id="path23"
     inkscape:connector-curvature="0" />
  <path
     style="opacity:0.20499998;fill:#0000ff;fill-opacity:1;stroke:none;stroke-width:0.02033898;stroke-linejoin:bevel;stroke-miterlimit:4;stroke-dasharray:none;stroke-opacity:0.57746474;paint-order:stroke markers fill"
     d="m 16.210169,22.621054 c -1.243967,-0.558511 -1.932203,-1.893746 -1.932203,-3.748633 0,-1.999889 1.269549,-3.69954 2.763359,-3.69954 0.62915,0 1.728334,0.8101 2.208695,1.62781 0.585595,0.996848 0.591695,3.466754 0.011,4.452625 -0.768549,1.304793 -1.98069,1.848212 -3.050848,1.367738 z"
     id="path25"
     inkscape:connector-curvature="0" />
  <path
     style="opacity:0.20499998;fill:#0000ff;fill-opacity:1;stroke:none;stroke-width:0.02033898;stroke-linejoin:bevel;stroke-miterlimit:4;stroke-dasharray:none;stroke-opacity:0.57746474;paint-order:stroke markers fill"
     d="m 29.753285,22.461572 c -2.017741,-1.381059 -2.182716,-5.018189 -0.302497,-6.669043 1.925288,-1.690426 4.352602,0.102695 4.352602,3.215382 0,2.87248 -2.18145,4.732676 -4.050105,3.453661 z"
     id="path27"
     inkscape:connector-curvature="0" />
  <path
     style="opacity:0.20499998;fill:#0000ff;fill-opacity:1;stroke:none;stroke-width:0.02033898;stroke-linejoin:bevel;stroke-miterlimit:4;stroke-dasharray:none;stroke-opacity:0.57746474;paint-order:stroke markers fill"
     d="m 29.981014,22.562305 c -2.251069,-1.10944 -2.407205,-5.464795 -0.248498,-6.931797 1.041671,-0.707892 1.93201,-0.610449 2.854917,0.312459 1.745812,1.745812 1.529989,5.184036 -0.408085,6.501101 -0.794481,0.539909 -1.288809,0.566496 -2.198334,0.118237 z"
     id="path29"
     inkscape:connector-curvature="0" />
</svg>
